<svg width="13" height="13" viewBox="0 0 13 13" fill="none" xmlns="http://www.w3.org/2000/svg">
<path d="M6.05273 12.1055C2.71289 12.1055 0 9.39258 0 6.05273C0 2.71289 2.71289 0 6.05273 0C9.39258 0 12.1055 2.71289 12.1055 6.05273C12.1055 9.39258 9.39258 12.1055 6.05273 12.1055ZM6.05273 10.9102C8.74219 10.9102 10.916 8.74219 10.916 6.05273C10.916 3.36328 8.74219 1.18945 6.05273 1.18945C3.36328 1.18945 1.18945 3.36328 1.18945 6.05273C1.18945 8.74219 3.36328 10.9102 6.05273 10.9102ZM5.41992 8.83594C5.20312 8.83594 5.0332 8.74805 4.875 8.54297L3.49219 6.85547C3.39258 6.73242 3.33984 6.60352 3.33984 6.46289C3.33984 6.16992 3.56836 5.94141 3.85547 5.94141C4.02539 5.94141 4.16602 6.00586 4.30664 6.1875L5.39648 7.57617L7.71094 3.86133C7.83398 3.66211 7.99219 3.56836 8.16797 3.56836C8.44336 3.56836 8.70117 3.76172 8.70117 4.04883C8.70117 4.18359 8.63086 4.32422 8.55469 4.44727L5.93555 8.54297C5.8125 8.73047 5.63086 8.83594 5.41992 8.83594Z" fill="#697DFF"/>
</svg>
